<mxfile host="65bd71144e">
    <diagram name="Page-1" id="58cdce13-f638-feb5-8d6f-7d28b1aa9fa0">
        <mxGraphModel dx="1243" dy="866" grid="1" gridSize="10" guides="1" tooltips="1" connect="1" arrows="1" fold="1" page="1" pageScale="1" pageWidth="1169" pageHeight="827" background="none" math="0" shadow="0">
            <root>
                <mxCell id="0"/>
                <mxCell id="1" parent="0"/>
                <mxCell id="382b91b5511bd0f7-1" value="" style="ellipse;html=1;shape=startState;rounded=1;shadow=0;comic=0;labelBackgroundColor=none;fontFamily=Verdana;fontSize=12;align=center;direction=south;" parent="1" vertex="1">
                    <mxGeometry x="535" y="138" width="30" height="30" as="geometry"/>
                </mxCell>
                <mxCell id="382b91b5511bd0f7-6" value="SPENTO" style="rounded=1;whiteSpace=wrap;html=1;arcSize=24;shadow=0;comic=0;labelBackgroundColor=none;fontFamily=Verdana;fontSize=12;align=center;" parent="1" vertex="1">
                    <mxGeometry x="212" y="348" width="120" height="60" as="geometry"/>
                </mxCell>
                <mxCell id="3cde6dad864a17aa-4" style="edgeStyle=orthogonalEdgeStyle;html=1;labelBackgroundColor=none;endArrow=open;endSize=8;fontFamily=Verdana;fontSize=12;align=left;exitX=0.75;exitY=0;exitDx=0;exitDy=0;entryX=0;entryY=0.5;entryDx=0;entryDy=0;" parent="1" source="382b91b5511bd0f7-6" target="382b91b5511bd0f7-10" edge="1">
                    <mxGeometry relative="1" as="geometry">
                        <mxPoint x="627" y="418" as="sourcePoint"/>
                        <mxPoint x="927" y="468" as="targetPoint"/>
                    </mxGeometry>
                </mxCell>
                <mxCell id="382b91b5511bd0f7-10" value="ACCENSIONE" style="rounded=1;whiteSpace=wrap;html=1;arcSize=24;shadow=0;comic=0;labelBackgroundColor=none;fontFamily=Verdana;fontSize=12;align=center;" parent="1" vertex="1">
                    <mxGeometry x="625" y="278" width="170" height="60" as="geometry"/>
                </mxCell>
                <mxCell id="3cde6dad864a17aa-6" style="edgeStyle=elbowEdgeStyle;html=1;labelBackgroundColor=none;endArrow=open;endSize=8;fontFamily=Verdana;fontSize=12;align=left;entryX=1;entryY=0.5;entryDx=0;entryDy=0;exitX=0.5;exitY=1;exitDx=0;exitDy=0;" parent="1" source="IfPPyGokXyLpAoEEmJJq-11" target="IfPPyGokXyLpAoEEmJJq-13" edge="1">
                    <mxGeometry relative="1" as="geometry">
                        <mxPoint x="502" y="743" as="sourcePoint"/>
                        <mxPoint x="512" y="628" as="targetPoint"/>
                        <Array as="points">
                            <mxPoint x="915" y="568"/>
                        </Array>
                    </mxGeometry>
                </mxCell>
                <mxCell id="3cde6dad864a17aa-8" style="edgeStyle=elbowEdgeStyle;html=1;labelBackgroundColor=none;endArrow=open;endSize=8;fontFamily=Verdana;fontSize=12;align=left;exitX=0;exitY=0.5;exitDx=0;exitDy=0;entryX=1;entryY=0.5;entryDx=0;entryDy=0;" parent="1" source="IfPPyGokXyLpAoEEmJJq-13" target="IfPPyGokXyLpAoEEmJJq-20" edge="1">
                    <mxGeometry relative="1" as="geometry">
                        <mxPoint x="-133" y="473" as="sourcePoint"/>
                        <mxPoint x="522" y="878" as="targetPoint"/>
                    </mxGeometry>
                </mxCell>
                <mxCell id="IfPPyGokXyLpAoEEmJJq-11" value="ACCESO" style="rounded=1;whiteSpace=wrap;html=1;arcSize=24;shadow=0;comic=0;labelBackgroundColor=none;fontFamily=Verdana;fontSize=12;align=center;" parent="1" vertex="1">
                    <mxGeometry x="835" y="478" width="170" height="60" as="geometry"/>
                </mxCell>
                <mxCell id="IfPPyGokXyLpAoEEmJJq-12" style="edgeStyle=elbowEdgeStyle;html=1;labelBackgroundColor=none;endArrow=open;endSize=8;fontFamily=Verdana;fontSize=12;align=left;exitX=1;exitY=0.5;exitDx=0;exitDy=0;entryX=0.5;entryY=0;entryDx=0;entryDy=0;" parent="1" source="382b91b5511bd0f7-10" target="IfPPyGokXyLpAoEEmJJq-11" edge="1">
                    <mxGeometry relative="1" as="geometry">
                        <mxPoint x="775" y="228" as="sourcePoint"/>
                        <mxPoint x="1000" y="338" as="targetPoint"/>
                        <Array as="points">
                            <mxPoint x="920" y="368"/>
                            <mxPoint x="895" y="298"/>
                            <mxPoint x="995" y="308"/>
                            <mxPoint x="1005" y="348"/>
                        </Array>
                    </mxGeometry>
                </mxCell>
                <mxCell id="IfPPyGokXyLpAoEEmJJq-13" value="MOVIMENTO" style="rounded=1;whiteSpace=wrap;html=1;arcSize=24;shadow=0;comic=0;labelBackgroundColor=none;fontFamily=Verdana;fontSize=12;align=center;" parent="1" vertex="1">
                    <mxGeometry x="565" y="628" width="170" height="60" as="geometry"/>
                </mxCell>
                <mxCell id="IfPPyGokXyLpAoEEmJJq-20" value="ALLARME" style="rounded=1;whiteSpace=wrap;html=1;arcSize=24;shadow=0;comic=0;labelBackgroundColor=none;fontFamily=Verdana;fontSize=12;align=center;" parent="1" vertex="1">
                    <mxGeometry x="155" y="628" width="200" height="60" as="geometry"/>
                </mxCell>
                <mxCell id="IfPPyGokXyLpAoEEmJJq-31" style="edgeStyle=orthogonalEdgeStyle;html=1;entryX=0.25;entryY=1;labelBackgroundColor=none;endArrow=open;endSize=8;fontFamily=Verdana;fontSize=12;align=left;entryDx=0;entryDy=0;exitX=0.5;exitY=0;exitDx=0;exitDy=0;" parent="1" source="IfPPyGokXyLpAoEEmJJq-20" target="382b91b5511bd0f7-6" edge="1">
                    <mxGeometry relative="1" as="geometry">
                        <mxPoint x="641.92" y="748" as="sourcePoint"/>
                        <mxPoint x="221.9199999999998" y="418" as="targetPoint"/>
                    </mxGeometry>
                </mxCell>
                <mxCell id="luAwBYcVwdZSEGFTsmjB-1" style="edgeStyle=orthogonalEdgeStyle;html=1;entryX=0.5;entryY=1;labelBackgroundColor=none;endArrow=open;endSize=8;fontFamily=Verdana;fontSize=12;align=left;entryDx=0;entryDy=0;exitX=0.5;exitY=0;exitDx=0;exitDy=0;" parent="1" source="IfPPyGokXyLpAoEEmJJq-13" target="382b91b5511bd0f7-6" edge="1">
                    <mxGeometry relative="1" as="geometry">
                        <mxPoint x="282" y="598" as="sourcePoint"/>
                        <mxPoint x="282" y="418" as="targetPoint"/>
                        <Array as="points">
                            <mxPoint x="650" y="588"/>
                            <mxPoint x="272" y="588"/>
                        </Array>
                    </mxGeometry>
                </mxCell>
                <mxCell id="luAwBYcVwdZSEGFTsmjB-2" style="edgeStyle=orthogonalEdgeStyle;html=1;entryX=0.75;entryY=1;labelBackgroundColor=none;endArrow=open;endSize=8;fontFamily=Verdana;fontSize=12;align=left;entryDx=0;entryDy=0;exitX=0;exitY=0.75;exitDx=0;exitDy=0;" parent="1" source="IfPPyGokXyLpAoEEmJJq-11" target="382b91b5511bd0f7-6" edge="1">
                    <mxGeometry relative="1" as="geometry">
                        <mxPoint x="575" y="598" as="sourcePoint"/>
                        <mxPoint x="312" y="418" as="targetPoint"/>
                        <Array as="points">
                            <mxPoint x="550" y="523"/>
                            <mxPoint x="550" y="430"/>
                            <mxPoint x="302" y="430"/>
                        </Array>
                    </mxGeometry>
                </mxCell>
                <mxCell id="luAwBYcVwdZSEGFTsmjB-3" style="edgeStyle=orthogonalEdgeStyle;html=1;entryX=0;entryY=0.25;labelBackgroundColor=none;endArrow=open;endSize=8;fontFamily=Verdana;fontSize=12;align=left;entryDx=0;entryDy=0;exitX=1;exitY=0.75;exitDx=0;exitDy=0;" parent="1" source="382b91b5511bd0f7-6" target="IfPPyGokXyLpAoEEmJJq-11" edge="1">
                    <mxGeometry relative="1" as="geometry">
                        <mxPoint x="845" y="518" as="sourcePoint"/>
                        <mxPoint x="342" y="418" as="targetPoint"/>
                        <Array as="points">
                            <mxPoint x="590" y="393"/>
                            <mxPoint x="590" y="493"/>
                        </Array>
                    </mxGeometry>
                </mxCell>
                <mxCell id="luAwBYcVwdZSEGFTsmjB-9" style="edgeStyle=orthogonalEdgeStyle;html=1;labelBackgroundColor=none;endArrow=open;endSize=8;fontFamily=Verdana;fontSize=12;align=left;exitX=0.5;exitY=0;exitDx=0;exitDy=0;entryX=1;entryY=0.5;entryDx=0;entryDy=0;" parent="1" source="382b91b5511bd0f7-1" target="IfPPyGokXyLpAoEEmJJq-11" edge="1">
                    <mxGeometry relative="1" as="geometry">
                        <mxPoint x="548.21" y="48" as="sourcePoint"/>
                        <mxPoint x="871.21" y="8" as="targetPoint"/>
                        <Array as="points">
                            <mxPoint x="1065" y="153"/>
                            <mxPoint x="1065" y="508"/>
                        </Array>
                    </mxGeometry>
                </mxCell>
                <mxCell id="luAwBYcVwdZSEGFTsmjB-10" style="edgeStyle=orthogonalEdgeStyle;html=1;labelBackgroundColor=none;endArrow=open;endSize=8;fontFamily=Verdana;fontSize=12;align=left;exitX=1;exitY=0.5;exitDx=0;exitDy=0;entryX=0.5;entryY=0;entryDx=0;entryDy=0;" parent="1" source="382b91b5511bd0f7-1" target="382b91b5511bd0f7-6" edge="1">
                    <mxGeometry relative="1" as="geometry">
                        <mxPoint x="306" y="208" as="sourcePoint"/>
                        <mxPoint x="629" y="168" as="targetPoint"/>
                    </mxGeometry>
                </mxCell>
                <mxCell id="luAwBYcVwdZSEGFTsmjB-11" style="edgeStyle=orthogonalEdgeStyle;html=1;labelBackgroundColor=none;endArrow=open;endSize=8;fontFamily=Verdana;fontSize=12;align=left;exitX=0.5;exitY=1;exitDx=0;exitDy=0;entryX=0;entryY=0.5;entryDx=0;entryDy=0;" parent="1" source="382b91b5511bd0f7-1" target="IfPPyGokXyLpAoEEmJJq-20" edge="1">
                    <mxGeometry relative="1" as="geometry">
                        <mxPoint x="110.21000000000001" y="167.43" as="sourcePoint"/>
                        <mxPoint x="433.21000000000004" y="127.43" as="targetPoint"/>
                        <Array as="points">
                            <mxPoint x="105" y="153"/>
                            <mxPoint x="105" y="658"/>
                        </Array>
                    </mxGeometry>
                </mxCell>
                <mxCell id="luAwBYcVwdZSEGFTsmjB-12" style="edgeStyle=orthogonalEdgeStyle;html=1;labelBackgroundColor=none;endArrow=open;endSize=8;fontFamily=Verdana;fontSize=12;align=left;exitX=0.5;exitY=1;exitDx=0;exitDy=0;entryX=1;entryY=0.25;entryDx=0;entryDy=0;" parent="1" source="382b91b5511bd0f7-10" target="382b91b5511bd0f7-6" edge="1">
                    <mxGeometry relative="1" as="geometry">
                        <mxPoint x="620" y="350" as="sourcePoint"/>
                        <mxPoint x="943" y="310" as="targetPoint"/>
                    </mxGeometry>
                </mxCell>
                <mxCell id="luAwBYcVwdZSEGFTsmjB-13" value="" style="sketch=0;pointerEvents=1;shadow=0;dashed=0;html=1;strokeColor=none;fillColor=#505050;labelPosition=center;verticalLabelPosition=bottom;verticalAlign=top;outlineConnect=0;align=center;shape=mxgraph.office.concepts.clock;" parent="1" vertex="1">
                    <mxGeometry x="765" y="278" width="30" height="30" as="geometry"/>
                </mxCell>
                <mxCell id="luAwBYcVwdZSEGFTsmjB-14" value="" style="sketch=0;pointerEvents=1;shadow=0;dashed=0;html=1;strokeColor=none;fillColor=#505050;labelPosition=center;verticalLabelPosition=bottom;verticalAlign=top;outlineConnect=0;align=center;shape=mxgraph.office.concepts.clock;" parent="1" vertex="1">
                    <mxGeometry x="705" y="628" width="30" height="30" as="geometry"/>
                </mxCell>
            </root>
        </mxGraphModel>
    </diagram>
</mxfile>